<svg xmlns="http://www.w3.org/2000/svg" xmlns:xlink="http://www.w3.org/1999/xlink" width="20.25830078125" height="20.00244140625" viewBox="0 0 20.25830078125 20.00244140625" fill="none"><path    stroke="rgba(2, 2, 2, 1)" stroke-width="2"  stroke-linecap="round"  d="M1.08984 5.44226L19.2583 5.44226"></path><path     fill="#CDFF71"  d="M3.28 7.45C3.09268 10.5888 3.25762 13.736 3.76 16.84C3.9614 18.0844 5.02945 19 6.29 19L13.71 19C14.9706 19 16.0386 18.0844 16.24 16.84C16.7424 13.736 16.9073 10.5888 16.72 7.45L16.63 6L3.37 6L3.28 7.45"></path><path   fill="rgba(2, 2, 2, 1)"  d="M3.36842 5L16.6315 5L17.6298 5.94043L17.7164 7.39131L16.7181 7.45088L17.7164 7.39131L16.7181 7.45088L17.7164 7.39131Q18.0048 12.2241 17.2313 17.0033L16.2441 16.8436L17.2313 17.0033L16.2441 16.8436L17.2313 17.0033Q17.1279 17.6418 16.8087 18.2014Q16.4987 18.7448 16.0213 19.1511Q15.5439 19.5575 14.9579 19.7767Q14.3546 20.0024 13.7078 20.0024L13.7078 19.0024L13.7078 20.0024L6.29219 20.0024L6.29219 19.0024L6.29219 20.0024L6.29219 19.0024L6.29219 20.0024Q5.64539 20.0024 5.04202 19.7767Q4.45608 19.5575 3.97868 19.1511Q3.50127 18.7448 3.19127 18.2014Q2.87204 17.6418 2.7687 17.0033L2.7687 17.0033L2.7687 17.0033Q1.99519 12.2241 2.28361 7.39131L2.28361 7.39131L2.3702 5.94043L3.36842 5ZM3.36842 7L3.36842 6L4.36664 6.05957L4.28006 7.51045L3.28183 7.45088L4.28006 7.51045Q4.00481 12.1227 4.74301 16.6838L3.75586 16.8436L4.74301 16.6838L3.75586 16.8436L4.74301 16.6838Q4.83527 17.2538 5.275 17.6281Q5.71473 18.0024 6.29219 18.0024L6.29219 18.0024L6.29219 18.0024L13.7078 18.0024L13.7078 18.0024Q14.2852 18.0024 14.725 17.6281Q15.1647 17.2538 15.257 16.6838L15.257 16.6838L15.257 16.6838Q15.9952 12.1227 15.7199 7.51045L15.7199 7.51045L15.7199 7.51045L15.6333 6.05957L16.6315 6L16.6315 7L3.36842 7ZM3.36842 5L3.36842 6L2.3702 5.94043C2.38919 5.67783 2.49336 5.45507 2.6827 5.27214C2.87659 5.09403 3.10516 5.00332 3.36842 5ZM17.6298 5.94043L16.6315 6L16.6315 5C16.8948 5.00332 17.1234 5.09403 17.3173 5.27214C17.5066 5.45507 17.6108 5.67783 17.6298 5.94043Z"></path><path    stroke="rgba(2, 2, 2, 1)" stroke-width="2" stroke-linejoin="round" stroke-linecap="round"  d="M6.43091 5.35101L6.43091 4.63787C6.43091 3.69218 6.80658 2.78522 7.47528 2.11652C8.14399 1.44782 9.05094 1.07214 9.99663 1.07214C10.9423 1.07214 11.8493 1.44782 12.518 2.11652C13.1867 2.78522 13.5624 3.69218 13.5624 4.63787L13.5624 5.35101"></path><path    stroke="rgba(2, 2, 2, 1)" stroke-width="2" stroke-linejoin="round" stroke-linecap="round"  d="M7.85742 9.17053L7.85742 15.8827"></path><path    stroke="rgba(2, 2, 2, 1)" stroke-width="2" stroke-linejoin="round" stroke-linecap="round"  d="M12.1362 9.17053L12.1362 15.8827"></path></svg>