<svg xmlns="http://www.w3.org/2000/svg" xmlns:xlink="http://www.w3.org/1999/xlink" width="22" height="22.057861328125" viewBox="0 0 22 22.057861328125" fill="none"><path    stroke="rgba(2, 2, 2, 1)" stroke-width="2.4749999046325684" stroke-linejoin="round" stroke-linecap="round"  d="M1.28723 16.3374L1.28723 17.8317C1.28723 18.6243 1.6021 19.3845 2.16258 19.945C2.72306 20.5055 3.48322 20.8203 4.27586 20.8203L17.7247 20.8203C18.5173 20.8203 19.2775 20.5055 19.8379 19.945C20.3984 19.3845 20.7133 18.6243 20.7133 17.8317L20.7133 16.3374"></path><path     fill="#CDFF71"  d="M11.0018 9.26749C12.0893 9.26749 13.6675 9.10755 14.9018 8.95749C15.9027 8.83581 16.5456 7.84135 16.1418 6.91749C15.2302 4.83171 13.8324 2.89976 11.7418 1.59749C11.2912 1.3168 10.7228 1.30742 10.2718 1.58749C8.1784 2.88758 6.78535 4.82204 5.87184 6.90749C5.46729 7.83105 6.09094 8.83576 7.09184 8.95749C8.32721 9.10774 9.91238 9.26749 11.0018 9.26749"></path><path   fill="rgba(2, 2, 2, 1)"  d="M7.24541 7.73091M7.24541 7.73091Q9.73186 8.03332 11.0002 8.03332L11.0002 9.27082L11.0002 8.03332L11.0002 9.27082L11.0002 8.03332Q12.2666 8.03332 14.7481 7.73164L14.8974 8.96009L14.7481 7.73164L14.8974 8.96009L14.7481 7.73164Q14.9156 7.71127 14.9926 7.58691Q15.0448 7.5026 15.0046 7.41067L15.0046 7.41067L15.0046 7.41067Q13.6097 4.21908 11.0854 2.6466L11.7397 1.59623L11.0854 2.6466L11.7397 1.59623L11.0854 2.6466Q11.0004 2.59362 10.9258 2.63994L10.9258 2.63994L10.9258 2.63994Q8.3979 4.20982 7.00037 7.40024L5.86685 6.90372L7.00037 7.40024L5.86685 6.90372L7.00037 7.40024Q6.95703 7.49917 7.01211 7.58987Q7.08599 7.71152 7.24541 7.73091L7.24541 7.73091ZM6.94659 10.1878L7.096 8.95936L6.9466 10.1878Q6.29382 10.1084 5.74915 9.75345Q5.22161 9.40966 4.89665 8.87457Q4.56429 8.32729 4.5139 7.69586Q4.46073 7.02951 4.73333 6.40719L4.73333 6.40719L4.73333 6.40719Q6.43924 2.51276 9.62003 0.537403L10.2729 1.58867L9.62003 0.537403L10.2729 1.58867L9.62003 0.537403Q10.261 0.139317 11.0153 0.144694Q11.7586 0.149994 12.394 0.545852L12.394 0.545852L12.394 0.545853Q15.5701 2.52431 17.2725 6.41949L16.1386 6.91508L17.2725 6.41949L16.1386 6.91508L17.2725 6.41949Q17.5457 7.04463 17.4887 7.71244Q17.4349 8.34403 17.0969 8.8899Q16.7686 9.41997 16.2396 9.76009Q15.6959 10.1096 15.0468 10.1885L15.0468 10.1885L15.0468 10.1885Q12.4165 10.5083 11.0002 10.5083L11.0002 10.5083L11.0002 10.5083Q9.58191 10.5083 6.94659 10.1878Z"></path><path    stroke="rgba(2, 2, 2, 1)" stroke-width="2.4749999046325684" stroke-linejoin="round" stroke-linecap="round"  d="M11.0003 9.27087L11.0003 16.3374"></path></svg>