<svg xmlns="http://www.w3.org/2000/svg" xmlns:xlink="http://www.w3.org/1999/xlink" width="23.01068115234375" height="23" viewBox="0 0 23.01068115234375 23" fill="none"><g opacity="0.4"><path   fill="rgba(2, 2, 2, 1)"  d="M0.300193 13.1076L9.31832 2.64655C10.4702 1.31037 12.5405 1.31037 13.6924 2.64655L22.7105 13.1076L20.8359 14.7236L11.8178 4.26258C11.6532 4.07169 11.3575 4.07169 11.1929 4.26258L2.17478 14.7236L0.300193 13.1076ZM1.23749 15.1531C0.554035 15.1531 -1.22786e-05 14.599 -1.22786e-05 13.9156C-1.22786e-05 13.2321 0.554035 12.6781 1.23749 12.6781C1.92094 12.6781 2.47499 13.2321 2.47499 13.9156C2.47499 14.599 1.92094 15.1531 1.23749 15.1531ZM21.7732 15.1531C21.0898 15.1531 20.5357 14.599 20.5357 13.9156C20.5357 13.2321 21.0898 12.6781 21.7732 12.6781C22.4567 12.6781 23.0107 13.2321 23.0107 13.9156C23.0107 14.599 22.4567 15.1531 21.7732 15.1531Z"></path><path     fill="#71BEE8"  d="M4.41574 10.3043L10.3037 3.44533C10.9617 2.67833 12.1487 2.67833 12.8077 3.44533L18.6947 10.3043L19.0307 12.7033C19.3337 14.8653 19.3197 17.0593 18.9867 19.2173L18.9867 19.2173C18.8187 20.3083 17.8797 21.1143 16.7747 21.1143L6.33574 21.1143C5.23174 21.1143 4.29174 20.3083 4.12374 19.2173L4.12374 19.2173C3.79174 17.0593 3.77674 14.8653 4.07974 12.7033L4.41574 10.3043Z"></path><path   fill="rgba(2, 2, 2, 1)"  d="M3.47699 9.49806L9.36438 2.639C10.5166 1.29656 12.5942 1.29656 13.7465 2.639L19.6339 9.49806C19.7881 9.67771 19.8875 9.89782 19.9204 10.1323L20.2567 12.5313Q20.7389 15.9717 20.2102 19.4053Q20.1138 20.0312 19.8042 20.5811Q19.5037 21.1149 19.0379 21.5144Q18.5721 21.914 17.9988 22.1297Q17.4082 22.352 16.7749 22.352L6.33602 22.352Q5.70265 22.352 5.11205 22.1297Q4.5388 21.914 4.073 21.5144Q3.6072 21.1149 3.3067 20.5811Q2.9971 20.0312 2.9007 19.4053Q2.37196 15.9717 2.85421 12.5313L3.19049 10.1323C3.22336 9.89782 3.32279 9.67771 3.47699 9.49806ZM5.35504 11.1101L4.41601 10.3041L5.64153 10.4758L5.30525 12.8749Q4.87353 15.9548 5.34687 19.0286Q5.40325 19.3947 5.68441 19.6359Q5.96558 19.877 6.33602 19.877L16.7749 19.877Q17.1453 19.877 17.4265 19.6359Q17.7076 19.3947 17.764 19.0286Q18.2373 15.9548 17.8056 12.8749L17.4693 10.4758L18.6949 10.3041L17.7558 11.1101L11.8684 4.251C11.7038 4.05923 11.407 4.05922 11.2424 4.251L5.35504 11.1101Z"></path><path d="M14.2451 16.0275C14.2451 14.5144 13.0185 13.2878 11.5055 13.2878C9.99239 13.2878 8.76581 14.5144 8.76581 16.0275L8.76581 21.0216L14.2451 21.0216L14.2451 16.0275Z" stroke="rgba(2, 2, 2, 1)" stroke-width="2.4749999046325684" stroke-linejoin="round" stroke-linecap="round"    fill="#FFFFFF" ></path></g></svg>