<svg xmlns="http://www.w3.org/2000/svg" xmlns:xlink="http://www.w3.org/1999/xlink" width="18" height="18" viewBox="0 0 18 18" fill="none"><path     fill="#FFFFFF" fill-opacity="0.8" d="M2.16547 0.927246L6.09048 0.927246C6.77393 0.927246 7.32798 1.48129 7.32798 2.16474L7.32798 6.08975C7.32798 6.7732 6.77393 7.32725 6.09048 7.32725L2.16547 7.32725C1.48202 7.32725 0.927979 6.7732 0.927979 6.08975L0.927979 2.16474C0.927979 1.48129 1.48202 0.927246 2.16547 0.927246Z"></path><path   fill="rgba(38, 54, 69, 1)"  d="M2.16547 0.177249L6.09048 0.177249C7.18815 0.177249 8.07798 1.06708 8.07798 2.16474L8.07798 6.08975C8.07798 7.18741 7.18815 8.07724 6.09048 8.07724L2.16547 8.07724C1.06781 8.07724 0.177981 7.18741 0.177981 6.08975L0.177981 2.16474C0.177981 1.06708 1.06781 0.177249 2.16547 0.177249ZM2.16547 1.67724C1.89624 1.67724 1.67798 1.8955 1.67798 2.16474L1.67798 6.08975C1.67798 6.35899 1.89624 6.57725 2.16547 6.57725L6.09048 6.57725C6.35972 6.57725 6.57798 6.35899 6.57798 6.08975L6.57798 2.16474C6.57798 1.8955 6.35972 1.67724 6.09048 1.67724L2.16547 1.67724Z"></path><path     fill="#FFFFFF" fill-opacity="0.8" d="M2.16547 10.5273L6.09048 10.5273C6.77393 10.5273 7.32798 11.0813 7.32798 11.7648L7.32798 15.6898C7.32798 16.3732 6.77393 16.9273 6.09048 16.9273L2.16547 16.9273C1.48202 16.9273 0.927979 16.3732 0.927979 15.6898L0.927979 11.7648C0.927979 11.0813 1.48202 10.5273 2.16547 10.5273Z"></path><path   fill="rgba(38, 54, 69, 1)"  d="M2.16547 9.77729L6.09048 9.77729C7.18815 9.77729 8.07798 10.6671 8.07798 11.7648L8.07798 15.6898C8.07798 16.7874 7.18815 17.6773 6.09048 17.6773L2.16547 17.6773C1.06781 17.6773 0.177981 16.7874 0.177981 15.6898L0.177981 11.7648C0.177981 10.6671 1.06781 9.77729 2.16547 9.77729ZM2.16547 11.2773C1.89624 11.2773 1.67798 11.4955 1.67798 11.7648L1.67798 15.6898C1.67798 15.959 1.89624 16.1773 2.16547 16.1773L6.09048 16.1773C6.35972 16.1773 6.57798 15.959 6.57798 15.6898L6.57798 11.7648C6.57798 11.4955 6.35972 11.2773 6.09048 11.2773L2.16547 11.2773Z"></path><path     fill="#FFFFFF" fill-opacity="0.8" d="M11.7653 0.927246L15.6903 0.927246C16.3738 0.927246 16.9278 1.48129 16.9278 2.16474L16.9278 6.08975C16.9278 6.7732 16.3738 7.32725 15.6903 7.32725L11.7653 7.32725C11.0819 7.32725 10.5278 6.7732 10.5278 6.08975L10.5278 2.16474C10.5278 1.48129 11.0819 0.927246 11.7653 0.927246Z"></path><path   fill="rgba(38, 54, 69, 1)"  d="M11.7653 0.177249L15.6903 0.177249C16.788 0.177249 17.6778 1.06708 17.6778 2.16474L17.6778 6.08975C17.6778 7.18741 16.788 8.07724 15.6903 8.07724L11.7653 8.07724C10.6677 8.07724 9.77783 7.18741 9.77783 6.08975L9.77783 2.16474C9.77783 1.06708 10.6677 0.177249 11.7653 0.177249ZM11.7653 1.67724C11.4961 1.67724 11.2778 1.8955 11.2778 2.16474L11.2778 6.08975C11.2778 6.35899 11.4961 6.57725 11.7653 6.57725L15.6903 6.57725C15.9596 6.57725 16.1778 6.35899 16.1778 6.08975L16.1778 2.16474C16.1778 1.8955 15.9596 1.67724 15.6903 1.67724L11.7653 1.67724Z"></path><path     fill="#FFFFFF" fill-opacity="0.8" d="M11.7653 10.5273L15.6903 10.5273C16.3738 10.5273 16.9278 11.0813 16.9278 11.7648L16.9278 15.6898C16.9278 16.3732 16.3738 16.9273 15.6903 16.9273L11.7653 16.9273C11.0819 16.9273 10.5278 16.3732 10.5278 15.6898L10.5278 11.7648C10.5278 11.0813 11.0819 10.5273 11.7653 10.5273Z"></path><path   fill="rgba(38, 54, 69, 1)"  d="M11.7653 9.77729L15.6903 9.77729C16.788 9.77729 17.6778 10.6671 17.6778 11.7648L17.6778 15.6898C17.6778 16.7874 16.788 17.6773 15.6903 17.6773L11.7653 17.6773C10.6677 17.6773 9.77783 16.7874 9.77783 15.6898L9.77783 11.7648C9.77783 10.6671 10.6677 9.77729 11.7653 9.77729ZM11.7653 11.2773C11.4961 11.2773 11.2778 11.4955 11.2778 11.7648L11.2778 15.6898C11.2778 15.959 11.4961 16.1773 11.7653 16.1773L15.6903 16.1773C15.9596 16.1773 16.1778 15.959 16.1778 15.6898L16.1778 11.7648C16.1778 11.4955 15.9596 11.2773 15.6903 11.2773L11.7653 11.2773Z"></path></svg>