<svg xmlns="http://www.w3.org/2000/svg" xmlns:xlink="http://www.w3.org/1999/xlink" width="18" height="18" viewBox="0 0 18 18" fill="none"><path     fill="#FFFFFF" fill-opacity="0.8" d="M2.16547 0.927246L6.09048 0.927246C6.77393 0.927246 7.32798 1.48129 7.32798 2.16474L7.32798 6.08975C7.32798 6.7732 6.77393 7.32725 6.09048 7.32725L2.16547 7.32725C1.48202 7.32725 0.927979 6.7732 0.927979 6.08975L0.927979 2.16474C0.927979 1.48129 1.48202 0.927246 2.16547 0.927246Z"></path><path   fill="rgba(38, 54, 69, 1)"  d="M2.16547 0.177249L6.09048 0.177249C7.18815 0.177249 8.07798 1.06708 8.07798 2.16474L8.07798 6.08975C8.07798 7.18741 7.18815 8.07724 6.09048 8.07724L2.16547 8.07724C1.06781 8.07724 0.177981 7.18741 0.177981 6.08975L0.177981 2.16474C0.177981 1.06708 1.06781 0.177249 2.16547 0.177249ZM2.16547 1.67724C1.89624 1.67724 1.67798 1.8955 1.67798 2.16474L1.67798 6.08975C1.67798 6.35899 1.89624 6.57725 2.16547 6.57725L6.09048 6.57725C6.35972 6.57725 6.57798 6.35899 6.57798 6.08975L6.57798 2.16474C6.57798 1.8955 6.35972 1.67724 6.09048 1.67724L2.16547 1.67724Z"></path><path     fill="#FFFFFF" fill-opacity="0.8" d="M2.16547 10.5273L6.09048 10.5273C6.77393 10.5273 7.32798 11.0813 7.32798 11.7648L7.32798 15.6898C7.32798 16.3732 6.77393 16.9273 6.09048 16.9273L2.16547 16.9273C1.48202 16.9273 0.927979 16.3732 0.927979 15.6898L0.927979 11.7648C0.927979 11.0813 1.48202 10.5273 2.16547 10.5273Z"></path><path   fill="rgba(38, 54, 69, 1)"  d="M2.16547 9.77729L6.09048 9.77729C7.18815 9.77729 8.07798 10.6671 8.07798 11.7648L8.07798 15.6898C8.07798 16.7874 7.18815 17.6773 6.09048 17.6773L2.16547 17.6773C1.06781 17.6773 0.177981 16.7874 0.177981 15.6898L0.177981 11.7648C0.177981 10.6671 1.06781 9.77729 2.16547 9.77729ZM2.16547 11.2773C1.89624 11.2773 1.67798 11.4955 1.67798 11.7648L1.67798 15.6898C1.67798 15.959 1.89624 16.1773 2.16547 16.1773L6.09048 16.1773C6.35972 16.1773 6.57798 15.959 6.57798 15.6898L6.57798 11.7648C6.57798 11.4955 6.35972 11.2773 6.09048 11.2773L2.16547 11.2773Z"></path><path     fill="#FFFFFF" fill-opacity="0.8" d="M11.7654 0.927246L15.6905 0.927246C16.3739 0.927246 16.928 1.48129 16.928 2.16474L16.928 6.08975C16.928 6.7732 16.3739 7.32725 15.6905 7.32725L11.7654 7.32725C11.082 7.32725 10.528 6.7732 10.528 6.08975L10.528 2.16474C10.528 1.48129 11.082 0.927246 11.7654 0.927246Z"></path><path   fill="rgba(38, 54, 69, 1)"  d="M11.7654 0.177249L15.6905 0.177249C16.7881 0.177249 17.678 1.06708 17.678 2.16474L17.678 6.08975C17.678 7.18741 16.7881 8.07724 15.6905 8.07724L11.7654 8.07724C10.6678 8.07724 9.77796 7.18741 9.77796 6.08975L9.77796 2.16474C9.77796 1.06708 10.6678 0.177249 11.7654 0.177249ZM11.7654 1.67724C11.4962 1.67724 11.278 1.8955 11.278 2.16474L11.278 6.08975C11.278 6.35899 11.4962 6.57725 11.7654 6.57725L15.6905 6.57725C15.9597 6.57725 16.178 6.35899 16.178 6.08975L16.178 2.16474C16.178 1.8955 15.9597 1.67724 15.6905 1.67724L11.7654 1.67724Z"></path><path     fill="#FFFFFF" fill-opacity="0.8" d="M11.7654 10.5273L15.6905 10.5273C16.3739 10.5273 16.928 11.0813 16.928 11.7648L16.928 15.6898C16.928 16.3732 16.3739 16.9273 15.6905 16.9273L11.7654 16.9273C11.082 16.9273 10.528 16.3732 10.528 15.6898L10.528 11.7648C10.528 11.0813 11.082 10.5273 11.7654 10.5273Z"></path><path   fill="rgba(38, 54, 69, 1)"  d="M11.7654 9.77729L15.6905 9.77729C16.7881 9.77729 17.678 10.6671 17.678 11.7648L17.678 15.6898C17.678 16.7874 16.7881 17.6773 15.6905 17.6773L11.7654 17.6773C10.6678 17.6773 9.77796 16.7874 9.77796 15.6898L9.77796 11.7648C9.77796 10.6671 10.6678 9.77729 11.7654 9.77729ZM11.7654 11.2773C11.4962 11.2773 11.278 11.4955 11.278 11.7648L11.278 15.6898C11.278 15.959 11.4962 16.1773 11.7654 16.1773L15.6905 16.1773C15.9597 16.1773 16.178 15.959 16.178 15.6898L16.178 11.7648C16.178 11.4955 15.9597 11.2773 15.6905 11.2773L11.7654 11.2773Z"></path></svg>