<svg xmlns="http://www.w3.org/2000/svg" xmlns:xlink="http://www.w3.org/1999/xlink" width="14" height="14.04931640625" viewBox="0 0 14 14.04931640625" fill="none"><path    stroke="rgba(2, 2, 2, 1)" stroke-width="1.6" stroke-linejoin="round" stroke-linecap="round"  d="M0.819092 10.3965L0.819092 11.3475C0.819092 11.8519 1.01946 12.3356 1.37613 12.6923C1.7328 13.0489 2.21654 13.2493 2.72094 13.2493L11.2793 13.2493C11.7837 13.2493 12.2674 13.0489 12.6241 12.6923C12.9808 12.3356 13.1811 11.8519 13.1811 11.3475L13.1811 10.3965"></path><path     fill="#CDFF71"  d="M7.0003 5.89927C7.50015 5.89927 8.16523 5.84488 8.7903 5.77927C9.79304 5.67401 10.4419 4.67044 9.9703 3.77927C9.44196 2.78075 8.71677 1.87139 7.7303 1.18927C7.29365 0.887332 6.71712 0.877573 6.2803 1.17927C5.29475 1.85996 4.55889 2.77267 4.0303 3.76927C3.55786 4.66001 4.20755 5.67391 5.2103 5.77927C5.83681 5.84509 6.49916 5.89927 7.0003 5.89927"></path><path   fill="rgba(2, 2, 2, 1)"  d="M5.29207 4.98452M5.29207 4.98452Q6.38707 5.09957 7.00016 5.09957L7.00016 5.89957L7.00016 5.09957L7.00016 5.89957L7.00016 5.09957Q7.61184 5.09957 8.70345 4.98498L8.70345 4.98498L8.70345 4.98498Q9.0715 4.94635 9.24749 4.65707Q9.39884 4.40829 9.26209 4.14985L9.96921 3.7757L9.26209 4.14985L9.96921 3.7757L9.26209 4.14985Q8.48458 2.68044 7.27292 1.8426L7.27292 1.8426L7.27292 1.8426Q7.14979 1.75746 7.00022 1.75717Q6.85161 1.75687 6.7302 1.84072L6.7302 1.84072L6.7302 1.84072Q5.51951 2.6769 4.74188 4.14305L4.03514 3.7682L4.74188 4.14305L4.03514 3.7682L4.74188 4.14305Q4.60315 4.40463 4.75463 4.65715Q4.92808 4.94628 5.29207 4.98452L5.20847 5.78014L5.29207 4.98452ZM5.12488 6.57576L5.12488 6.57576Q4.5689 6.51735 4.10476 6.22062Q3.65378 5.93231 3.38258 5.48024Q3.10177 5.01213 3.07888 4.47777Q3.05455 3.90966 3.32839 3.39336L3.32839 3.39336L3.32839 3.39336Q4.28897 1.58227 5.82093 0.524202L6.27557 1.18246L5.82093 0.524202L6.27557 1.18246L5.82093 0.524202Q6.35422 0.155882 7.00339 0.157168Q7.65053 0.158451 8.18292 0.526586L7.72792 1.18459L8.18292 0.526586L7.72792 1.18459L8.18292 0.526586Q9.71603 1.5867 10.6763 3.40154L10.6763 3.40154L10.6763 3.40154Q10.9502 3.91918 10.9235 4.48762Q10.8985 5.02171 10.6144 5.48867Q10.3411 5.93788 9.88901 6.22415Q9.42488 6.51804 8.87049 6.57624L8.78697 5.78061L8.87049 6.57624L8.78697 5.78061L8.87049 6.57624Q7.69558 6.69957 7.00016 6.69957L7.00016 6.69957L7.00016 6.69957Q6.30325 6.69957 5.12488 6.57576Z"></path><path    stroke="rgba(2, 2, 2, 1)" stroke-width="2.4749999046325684" stroke-linejoin="round" stroke-linecap="round"  d="M7.00012 6.49963L7.00012 10.3996"></path></svg>