<svg xmlns="http://www.w3.org/2000/svg" xmlns:xlink="http://www.w3.org/1999/xlink" width="23.0107421875" height="23" viewBox="0 0 23.0107421875 23" fill="none"><path   fill="rgba(2, 2, 2, 1)"  d="M0.300254 13.1076L9.31839 2.64661C10.4703 1.31043 12.5405 1.31043 13.6924 2.64661L22.7106 13.1076L20.836 14.7237L11.8178 4.26264C11.6533 4.07176 11.3575 4.07175 11.193 4.26264L2.17484 14.7237L0.300254 13.1076ZM1.23755 15.1532C0.554096 15.1532 4.87566e-05 14.5991 4.87566e-05 13.9157C4.87566e-05 13.2322 0.554096 12.6782 1.23755 12.6782C1.921 12.6782 2.47505 13.2322 2.47505 13.9157C2.47505 14.5991 1.921 15.1532 1.23755 15.1532ZM21.7733 15.1532C21.0898 15.1532 20.5358 14.5991 20.5358 13.9157C20.5358 13.2322 21.0898 12.6782 21.7733 12.6782C22.4567 12.6782 23.0108 13.2322 23.0108 13.9157C23.0108 14.5991 22.4567 15.1532 21.7733 15.1532Z"></path><path     fill="#71BEE8"  d="M4.4158 10.3043L10.3038 3.44533C10.9618 2.67833 12.1488 2.67833 12.8078 3.44533L18.6948 10.3043L19.0308 12.7033C19.3338 14.8653 19.3198 17.0593 18.9868 19.2173L18.9868 19.2173C18.8188 20.3083 17.8798 21.1143 16.7748 21.1143L6.3358 21.1143C5.2318 21.1143 4.2918 20.3083 4.1238 19.2173L4.1238 19.2173C3.7918 17.0593 3.7768 14.8653 4.0798 12.7033L4.4158 10.3043Z"></path><path   fill="rgba(2, 2, 2, 1)"  d="M3.47705 9.49806L9.36444 2.639C10.5167 1.29656 12.5943 1.29656 13.7466 2.639L19.6339 9.49806C19.7881 9.67771 19.8876 9.89782 19.9204 10.1323L20.2567 12.5313Q20.739 15.9717 20.2102 19.4053Q20.1138 20.0312 19.8042 20.5811Q19.5037 21.1149 19.0379 21.5144Q18.5721 21.914 17.9989 22.1297Q17.4083 22.352 16.7749 22.352L6.33608 22.352Q5.70271 22.352 5.11211 22.1297Q4.53886 21.914 4.07306 21.5144Q3.60726 21.1149 3.30676 20.5811Q2.99716 20.0312 2.90077 19.4053Q2.37202 15.9717 2.85427 12.5313L3.19055 10.1323C3.22342 9.89782 3.32285 9.67771 3.47705 9.49806ZM5.3551 11.1101L4.41607 10.3041L5.64159 10.4758L5.30531 12.8749Q4.87359 15.9548 5.34693 19.0286Q5.40331 19.3947 5.68448 19.6359Q5.96564 19.877 6.33608 19.877L16.7749 19.877Q17.1453 19.877 17.4265 19.6359Q17.7077 19.3947 17.7641 19.0286Q18.2374 15.9548 17.8057 12.8749L17.4694 10.4758L18.6949 10.3041L17.7559 11.1101L11.8685 4.251C11.7039 4.05923 11.4071 4.05922 11.2425 4.251L5.3551 11.1101Z"></path><path d="M14.2452 16.0276C14.2452 14.5145 13.0186 13.2879 11.5055 13.2879C9.99245 13.2879 8.76587 14.5145 8.76587 16.0276L8.76587 21.0217L14.2452 21.0217L14.2452 16.0276Z" stroke="rgba(2, 2, 2, 1)" stroke-width="2.4749999046325684" stroke-linejoin="round" stroke-linecap="round"    fill="#FFFFFF" ></path></svg>