<svg xmlns="http://www.w3.org/2000/svg" xmlns:xlink="http://www.w3.org/1999/xlink" width="23" height="23" viewBox="0 0 23 23" fill="none"><g opacity="0.4"><path d="M19.3791 7.57162C19.3791 9.74818 17.6146 11.5126 15.4381 11.5126C13.2615 11.5126 11.4971 9.74818 11.4971 7.57162C11.4971 5.39507 13.2615 3.63062 15.4381 3.63062C17.6146 3.63062 19.3791 5.39507 19.3791 7.57162Z"   fill="#71BEE8" ></path><path    stroke="rgba(2, 2, 2, 1)" stroke-width="2.4749999046325684" stroke-linejoin="round" stroke-linecap="round"  d="M15.4385 11.5138C17.615 11.5138 19.3795 9.7493 19.3795 7.57274C19.3795 5.88905 18.3237 4.45195 16.838 3.88745"></path><path d="M20.8212 17.0496C22.749 18.3336 21.4473 20.8099 19.1311 20.8099L10.4331 20.8099C8.11696 20.8099 6.81525 18.3336 8.743 17.0496C10.4721 15.898 12.5487 15.2268 14.7821 15.2268C17.0155 15.2268 19.0921 15.898 20.8212 17.0496Z"   fill="#71BEE8" ></path><path d="M13.0792 6.45976C13.0792 8.81912 11.1665 10.7318 8.80717 10.7318C6.4478 10.7318 4.53516 8.81912 4.53516 6.45976C4.53516 4.10039 6.4478 2.18774 8.80717 2.18774C11.1665 2.18774 13.0792 4.10039 13.0792 6.45976Z" stroke="rgba(2, 2, 2, 1)" stroke-width="2.4749999046325684" stroke-linejoin="round" stroke-linecap="round"    fill="#71BEE8" ></path><path d="M15.3506 16.734C17.4403 18.1258 16.0292 20.8101 13.5185 20.8101L4.09002 20.8101C1.5793 20.8101 0.168264 18.1258 2.25792 16.734C4.13229 15.4856 6.38331 14.7581 8.80426 14.7581C11.2252 14.7581 13.4762 15.4856 15.3506 16.734Z" stroke="rgba(2, 2, 2, 1)" stroke-width="2.4749999046325684"      fill="#71BEE8" ></path><path    stroke="rgba(2, 2, 2, 1)" stroke-width="2.4749999046325684"  stroke-linecap="round"  d="M13.1553 20.8108L19.1313 20.8108C21.4474 20.8108 22.7492 18.3345 20.8214 17.0506C20.2891 16.696 19.7239 16.3871 19.1313 16.1292"></path></g></svg>