<svg xmlns="http://www.w3.org/2000/svg" xmlns:xlink="http://www.w3.org/1999/xlink" width="20" height="20" viewBox="0 0 20 20" fill="none"><path     fill="#CDFF71"  d="M5.75129 2.35609C4.40103 3.16488 3.29447 4.31863 2.55129 5.70609C1.80811 7.09355 1.45638 8.66391 1.53129 10.2361C1.59668 11.6085 1.98358 12.9374 2.66129 14.1261L1.51129 17.5861C1.31363 18.1761 1.80754 18.7583 2.42129 18.6561L7.00129 17.8961C8.01273 18.3001 9.08832 18.5161 10.1813 18.5161C11.4908 18.5161 12.7891 18.2394 13.9713 17.6761C15.1535 17.1128 16.1914 16.2872 17.0113 15.2661C17.8312 14.245 18.4066 13.052 18.7013 11.7761C18.996 10.5001 19.0004 9.17332 18.7113 7.89609C18.4222 6.61886 17.8468 5.42074 17.0313 4.39609C16.2158 3.37144 15.181 2.54452 14.0013 1.97609C12.8215 1.40766 11.5308 1.11609 10.2213 1.11609C8.64733 1.11609 7.10155 1.54729 5.75129 2.35609"></path><path   fill="rgba(2, 2, 2, 1)"  d="M10.2222 2.11609M10.2222 2.11609Q9.1774 2.11642 8.17044 2.39509Q7.16349 2.67377 6.26717 3.21065L6.26717 3.21065L6.26717 3.21065Q5.37086 3.74754 4.64998 4.50381Q3.9291 5.26009 3.43578 6.1811L3.43577 6.1811L3.43577 6.1811Q2.94244 7.1021 2.71233 8.12125Q2.48221 9.1404 2.53193 10.184L2.53193 10.184L2.53193 10.184Q2.6198 12.0281 3.53416 13.6319L3.61362 14.4448L2.45547 17.9016L2.45547 17.9016C2.4974 17.7764 2.39099 17.6517 2.2608 17.6734L2.2608 17.6734L6.8351 16.9117L7.37029 16.9695L7.37029 16.9695Q8.72746 17.5116 10.1889 17.5188L10.1839 18.5188L10.1889 17.5188L10.1839 18.5188L10.1889 17.5188Q11.9499 17.5275 13.5396 16.7701L13.9698 17.6728L13.5396 16.7701L13.9698 17.6728L13.5396 16.7701Q15.1294 16.0126 16.232 14.6395L17.0117 15.2656L16.232 14.6395L17.0117 15.2656L16.232 14.6395Q17.3346 13.2664 17.7309 11.5506L17.7309 11.5506L17.7309 11.5506Q18.1272 9.83471 17.7384 8.11717L18.7137 7.89639L17.7384 8.11717L18.7137 7.89639L17.7384 8.11717Q17.3496 6.39962 16.253 5.02173L16.253 5.02173L16.253 5.02173Q15.1564 3.64383 13.5699 2.87944L14.004 1.97856L13.5699 2.87944L14.004 1.97856L13.5699 2.87944Q11.9835 2.11505 10.2225 2.11609L10.2222 2.11609ZM10.2216 0.11609L10.2219 1.11609L10.2213 0.116091Q12.4396 0.114781 14.4381 1.07768L14.4381 1.07768L14.4381 1.07768Q16.4365 2.04058 17.8179 3.7763L17.0354 4.39901L17.8179 3.7763L17.0354 4.39901L17.8179 3.7763Q19.1993 5.51202 19.689 7.67561L19.689 7.67561L19.689 7.67561Q20.1788 9.83919 19.6796 12.0006L18.7053 11.7756L19.6796 12.0006L18.7053 11.7756L19.6796 12.0006Q19.1804 14.162 17.7915 15.8917L17.7915 15.8917L17.7915 15.8917Q16.4025 17.6214 14.3999 18.5756L14.3999 18.5756L14.3999 18.5756Q12.3973 19.5298 10.179 19.5188L10.179 19.5188L10.179 19.5188Q8.33803 19.5096 6.62841 18.8268L6.99935 17.8981L6.62841 18.8268L6.99935 17.8981L7.1636 18.8845L2.5893 19.6462L2.42505 18.6598L2.5893 19.6462C1.2316 19.8723 0.121825 18.5713 0.559082 17.2662L1.50728 17.5839L0.559082 17.2662L1.71723 13.8095L2.66543 14.1272L1.7967 14.6225Q0.644881 12.6022 0.534198 10.2792L1.53306 10.2316L0.534198 10.2792L1.53306 10.2316L0.534198 10.2792Q0.471559 8.96457 0.761439 7.68075Q1.05132 6.39693 1.67276 5.23675L2.55427 5.70892L1.67276 5.23675L2.55427 5.70892L1.67276 5.23675Q2.29421 4.07657 3.20229 3.12389Q4.11038 2.17121 5.23946 1.4949L5.75331 2.35278L5.23946 1.4949L5.75331 2.35278L5.23946 1.4949Q6.36854 0.818594 7.63699 0.467547Q8.90545 0.1165 10.2216 0.11609ZM10.2222 2.11609L10.2219 1.11609L10.2225 2.11609C10.2224 2.11609 10.2224 2.11609 10.2223 2.11609C10.2223 2.11609 10.2223 2.11609 10.2222 2.11609ZM3.61362 14.4448L2.66543 14.1272L3.53416 13.6319C3.60434 13.7556 3.64652 13.8883 3.66068 14.0299C3.6742 14.1715 3.65852 14.3098 3.61362 14.4448ZM7.37029 16.9695L6.99935 17.8981L6.8351 16.9117C6.92526 16.8967 7.01578 16.8941 7.10666 16.9039C7.19752 16.9137 7.28539 16.9356 7.37029 16.9695Z"></path><path    stroke="rgba(2, 2, 2, 1)" stroke-width="2.4749999046325684" stroke-linejoin="round" stroke-linecap="round"  d="M14.6427 10.3442C14.453 10.3442 14.2993 10.1904 14.2993 10.0008C14.2993 9.8111 14.453 9.65735 14.6427 9.65735"></path><path    stroke="rgba(2, 2, 2, 1)" stroke-width="2.4749999046325684" stroke-linejoin="round" stroke-linecap="round"  d="M14.6428 10.3442C14.8325 10.3442 14.9862 10.1904 14.9862 10.0008C14.9862 9.8111 14.8325 9.65735 14.6428 9.65735"></path><path    stroke="rgba(2, 2, 2, 1)" stroke-width="2.4749999046325684" stroke-linejoin="round" stroke-linecap="round"  d="M10.3572 10.3442C10.1675 10.3442 10.0138 10.1904 10.0138 10.0008C10.0138 9.8111 10.1675 9.65735 10.3572 9.65735"></path><path    stroke="rgba(2, 2, 2, 1)" stroke-width="2.4749999046325684" stroke-linejoin="round" stroke-linecap="round"  d="M10.3573 10.3442C10.547 10.3442 10.7007 10.1904 10.7007 10.0008C10.7007 9.8111 10.547 9.65735 10.3573 9.65735"></path><path    stroke="rgba(2, 2, 2, 1)" stroke-width="2.4749999046325684" stroke-linejoin="round" stroke-linecap="round"  d="M6.07131 10.3442C5.88165 10.3442 5.72791 10.1904 5.72791 10.0008C5.72791 9.8111 5.88165 9.65735 6.07131 9.65735"></path><path    stroke="rgba(2, 2, 2, 1)" stroke-width="2.4749999046325684" stroke-linejoin="round" stroke-linecap="round"  d="M6.07145 10.3442C6.26111 10.3442 6.41486 10.1904 6.41486 10.0008C6.41486 9.8111 6.26111 9.65735 6.07145 9.65735"></path></svg>