<svg xmlns="http://www.w3.org/2000/svg" xmlns:xlink="http://www.w3.org/1999/xlink" width="23" height="23" viewBox="0 0 23 23" fill="none"><g opacity="0.4"><path d="M19.3793 7.57175C19.3793 9.74831 17.6149 11.5128 15.4383 11.5128C13.2618 11.5128 11.4973 9.74831 11.4973 7.57175C11.4973 5.39519 13.2618 3.63074 15.4383 3.63074C17.6149 3.63074 19.3793 5.39519 19.3793 7.57175Z"   fill="#71BEE8" ></path><path    stroke="rgba(2, 2, 2, 1)" stroke-width="2.4749999046325684" stroke-linejoin="round" stroke-linecap="round"  d="M15.4382 11.5138C17.6148 11.5138 19.3792 9.7493 19.3792 7.57274C19.3792 5.88905 18.3234 4.45195 16.8377 3.88745"></path><path d="M20.8215 17.0496C22.7492 18.3336 21.4475 20.8099 19.1313 20.8099L10.4334 20.8099C8.11721 20.8099 6.8155 18.3336 8.74324 17.0496C10.4724 15.898 12.549 15.2268 14.7824 15.2268C17.0157 15.2268 19.0923 15.898 20.8215 17.0496Z"   fill="#71BEE8" ></path><path d="M13.0789 6.45976C13.0789 8.81912 11.1663 10.7318 8.80692 10.7318C6.44756 10.7318 4.53491 8.81912 4.53491 6.45976C4.53491 4.10039 6.44756 2.18774 8.80692 2.18774C11.1663 2.18774 13.0789 4.10039 13.0789 6.45976Z" stroke="rgba(2, 2, 2, 1)" stroke-width="2.4749999046325684" stroke-linejoin="round" stroke-linecap="round"    fill="#71BEE8" ></path><path d="M15.3506 16.734C17.4403 18.1258 16.0292 20.8101 13.5185 20.8101L4.09002 20.8101C1.5793 20.8101 0.168264 18.1258 2.25792 16.734C4.13229 15.4856 6.38331 14.7581 8.80426 14.7581C11.2252 14.7581 13.4762 15.4856 15.3506 16.734Z" stroke="rgba(2, 2, 2, 1)" stroke-width="2.4749999046325684"      fill="#71BEE8" ></path><path    stroke="rgba(2, 2, 2, 1)" stroke-width="2.4749999046325684"  stroke-linecap="round"  d="M13.1552 20.8108L19.1311 20.8108C21.4473 20.8108 22.749 18.3345 20.8213 17.0506C20.289 16.696 19.7237 16.3871 19.1311 16.1292"></path></g></svg>