<svg xmlns="http://www.w3.org/2000/svg" xmlns:xlink="http://www.w3.org/1999/xlink" width="23" height="23" viewBox="0 0 23 23" fill="none"><g opacity="0.4"><path     fill="#FFFFFF"  d="M5.67679 2.65944C4.33661 3.46618 3.23443 4.62552 2.49679 6.00944C1.75916 7.39337 1.41244 8.95127 1.48679 10.5194C1.5517 11.8883 1.93414 13.2238 2.60679 14.4094L1.45679 17.8494C1.26009 18.4395 1.76337 19.0321 2.37679 18.9294L6.90679 18.1694C7.91069 18.5724 8.98198 18.7894 10.0668 18.7894C11.3665 18.7894 12.6534 18.5013 13.8268 17.9394C15.0002 17.3776 16.033 16.5579 16.8468 15.5394C17.6606 14.521 18.2343 13.3321 18.5268 12.0594C18.8193 10.7867 18.8238 9.46342 18.5368 8.18944C18.2498 6.91547 17.6862 5.72149 16.8768 4.69944C16.0674 3.6774 15.0377 2.85642 13.8668 2.28944C12.6959 1.72246 11.4066 1.42944 10.1068 1.42944C8.54458 1.42944 7.01698 1.85271 5.67679 2.65944"></path><path   fill="rgba(2, 2, 2, 1)"  d="M10.1095 2.66694M10.1095 2.66694Q9.10653 2.66726 8.13983 2.93612Q7.17291 3.20504 6.3121 3.72322L5.67388 2.66299L6.3121 3.72322L5.67388 2.66299L6.3121 3.72322Q5.45095 4.24159 4.7582 4.97196Q4.06515 5.70264 3.59077 6.59266L2.49871 6.01059L3.59077 6.59266L2.49871 6.01059L3.59077 6.59266Q3.11621 7.48301 2.89482 8.46837Q2.67338 9.45392 2.72124 10.4632L1.48512 10.5218L2.72124 10.4632L1.48512 10.5218L2.72124 10.4632Q2.80578 12.2463 3.68539 13.7968L3.78301 14.7988L2.63449 18.2438L2.63449 18.2438C2.73284 17.9488 2.4818 17.6552 2.17509 17.7065L2.37933 18.927L2.17508 17.7065L6.70638 16.9482L7.37162 17.0203L7.37162 17.0203Q8.67464 17.5434 10.0776 17.5504L10.0776 17.5504L10.0776 17.5504Q11.7682 17.5588 13.2946 16.8279L13.829 17.944L13.2946 16.8279L13.829 17.944L13.2946 16.8279Q14.8219 16.0966 15.8815 14.7705L16.8483 15.543L15.8815 14.7705L16.8483 15.543L15.8815 14.7705Q16.9419 13.4434 17.3231 11.7846L17.3231 11.7846L17.3231 11.7846Q17.7045 10.1254 17.3303 8.46443L18.5376 8.19249L17.3303 8.46443L18.5376 8.19249L17.3303 8.46443Q16.9563 6.80399 15.9017 5.47229L16.8718 4.70402L15.9017 5.47229L16.8718 4.70402L15.9017 5.47229Q14.8478 4.14151 13.3237 3.40352L13.3237 3.40352L13.3237 3.40352Q11.8004 2.66594 10.1099 2.66694L10.1095 2.66694ZM10.1087 0.191945L10.1091 1.42944L10.1084 0.191945Q12.3674 0.190605 14.4023 1.17592L13.863 2.28972L14.4023 1.17592L13.863 2.28972L14.4023 1.17592Q16.4364 2.16082 17.842 3.93574L17.842 3.93574L17.842 3.93574Q19.2468 5.70973 19.7448 7.92056L19.7448 7.92056L19.7448 7.92056Q20.2427 10.1309 19.7352 12.339L18.5292 12.0618L19.7352 12.339L18.5292 12.0618L19.7352 12.339Q19.2277 14.5476 17.8151 16.3155L17.8151 16.3155L17.8151 16.3155Q16.4018 18.0842 14.3635 19.0602L14.3635 19.0602L14.3635 19.0602Q12.3243 20.0366 10.0653 20.0253L10.0715 18.7879L10.0653 20.0253L10.0715 18.7879L10.0653 20.0253Q8.19051 20.016 6.44963 19.3172L6.91062 18.1688L6.44963 19.3172L6.91062 18.1688L7.11486 19.3893L2.58357 20.1475L2.58356 20.1475C1.05 20.4042 -0.205234 18.9361 0.286539 17.461L1.46051 17.8524L0.286539 17.461L1.43506 14.016L2.60904 14.4074L1.53269 15.018Q0.361537 12.9537 0.249013 10.5804L0.249013 10.5804L0.249013 10.5804Q0.185337 9.23737 0.480022 7.92581Q0.774747 6.61407 1.40665 5.42852L1.40665 5.42852L1.40665 5.42852Q2.03872 4.24265 2.96248 3.26873Q3.88654 2.29448 5.03567 1.60275L5.03567 1.60275L5.03567 1.60275Q6.18514 0.910825 7.47665 0.551625Q8.76839 0.192365 10.1087 0.191945ZM10.1095 2.66694L10.1091 1.42944L10.1099 2.66694C10.1098 2.66694 10.1097 2.66694 10.1097 2.66694C10.1096 2.66694 10.1096 2.66694 10.1095 2.66694ZM2.72124 10.4632L1.48512 10.5218L2.72124 10.4632C2.72124 10.4632 2.72124 10.4632 2.72124 10.4632C2.72124 10.4632 2.72124 10.4632 2.72124 10.4632ZM3.78301 14.7988L2.60904 14.4074L3.68539 13.7968C3.77154 13.9494 3.82332 14.113 3.84071 14.2874C3.85731 14.4619 3.83808 14.6324 3.78301 14.7988ZM7.37162 17.0203L6.91062 18.1688L6.70638 16.9482C6.81847 16.9295 6.93099 16.9263 7.04397 16.9385C7.15693 16.9508 7.26614 16.9781 7.37162 17.0203Z"></path><path     fill="#71BEE8"  d="M18.4833 9.20856C19.4885 9.81362 20.3201 10.6806 20.8733 11.7186C21.4266 12.7565 21.6891 13.9224 21.6333 15.0986C21.5847 16.1252 21.2878 17.1193 20.7833 18.0086L21.6433 20.5986C21.7909 21.0411 21.4234 21.4756 20.9633 21.3986L17.5633 20.8286C16.8104 21.1308 16.0069 21.2986 15.1933 21.2986C14.2185 21.2986 13.2534 21.0899 12.3733 20.6686C11.4933 20.2472 10.7137 19.6324 10.1033 18.8686C9.49297 18.1047 9.0627 17.2031 8.84333 16.2486C8.62396 15.294 8.62811 14.304 8.84333 13.3486C9.05855 12.3931 9.48629 11.5051 10.0933 10.7386C10.7004 9.97203 11.4651 9.3538 12.3433 8.92856C13.2215 8.50333 14.1885 8.27856 15.1633 8.27856C16.335 8.27856 17.4782 8.60351 18.4833 9.20856"></path><path   fill="rgba(2, 2, 2, 1)"  d="M15.1612 9.51607M15.1612 9.51607Q16.6081 9.51652 17.8498 10.264L17.8498 10.264L17.8498 10.264Q19.0928 11.0122 19.7773 12.2965L19.7773 12.2965L19.7773 12.2965Q20.4626 13.5821 20.3935 15.0392L21.6296 15.0978L20.3935 15.0392L21.6296 15.0978L20.3935 15.0392Q20.3336 16.3028 19.7103 17.4014L19.6127 18.4034L20.4741 20.9872L21.648 20.5958L20.4741 20.9872C20.3265 20.5447 20.7031 20.1042 21.1632 20.1812L20.9589 21.4017L21.1632 20.1812L17.7647 19.6125L17.0995 19.6846L17.0995 19.6846Q16.1769 20.0549 15.1837 20.0599L15.1898 21.2974L15.1837 20.0599L15.1898 21.2974L15.1837 20.0599Q13.9868 20.0658 12.9061 19.5484L12.9061 19.5484L12.9061 19.5484Q11.8245 19.0305 11.074 18.0912L10.1072 18.8637L11.074 18.0912L10.1072 18.8637L11.074 18.0912Q10.3227 17.151 10.0526 15.9757L8.84654 16.2528L10.0526 15.9757L8.84654 16.2528L10.0526 15.9757Q9.78236 14.7998 10.0475 13.6228L8.84024 13.3509L10.0475 13.6228L8.84024 13.3509L10.0475 13.6228Q10.3125 12.4463 11.0597 11.5028L11.0597 11.5028L11.0597 11.5028Q11.8061 10.5602 12.8855 10.0376L12.3462 8.92377L12.8855 10.0376L12.3462 8.92377L12.8855 10.0376Q13.964 9.51536 15.1608 9.51607L15.1612 9.51607ZM15.162 7.04107L15.1616 8.27857L15.1623 7.04107Q13.397 7.04002 11.8068 7.80997L11.8068 7.80997L11.8068 7.80997Q10.2176 8.57951 9.11941 9.96622L10.0895 10.7345L9.11941 9.96622L10.0895 10.7345L9.11941 9.96622Q8.02198 11.352 7.63299 13.0789L7.63299 13.0789L7.63299 13.0789Q7.24411 14.8053 7.64048 16.53L7.64048 16.53L7.64048 16.53Q8.03696 18.2552 9.14041 19.6362L9.14041 19.6362L9.14041 19.6362Q10.2446 21.0181 11.8372 21.7807L12.3716 20.6645L11.8372 21.7807L12.3716 20.6645L11.8372 21.7807Q13.4307 22.5436 15.196 22.5349L15.196 22.5349L15.196 22.5349Q16.6611 22.5276 18.0215 21.9815L17.5605 20.833L18.0215 21.9815L17.5605 20.833L17.3562 22.0536L20.7547 22.6223L20.7547 22.6223C22.1349 22.8532 23.2646 21.532 22.822 20.2044L22.822 20.2044L21.9606 17.6206L20.7866 18.012L21.863 18.6227Q22.7778 17.0102 22.8657 15.1564L22.8657 15.1564L22.8657 15.1564Q22.9154 14.1074 22.6853 13.083Q22.455 12.0584 21.9615 11.1324L20.8694 11.7144L21.9615 11.1324L20.8694 11.7144L21.9615 11.1324Q21.4677 10.206 20.746 9.44512Q20.0241 8.68396 19.1262 8.14349L18.488 9.20372L19.1262 8.14349L18.488 9.20372L19.1262 8.14349Q18.228 7.60282 17.2188 7.32214Q16.2094 7.04139 15.162 7.04107ZM15.1612 9.51607L15.1616 8.27857L15.1608 9.51607C15.1609 9.51607 15.161 9.51607 15.161 9.51607C15.1611 9.51607 15.1611 9.51607 15.1612 9.51607ZM15.1837 20.0599L15.1898 21.2974L15.1837 20.0599C15.1837 20.0599 15.1837 20.0599 15.1837 20.0599C15.1837 20.0599 15.1837 20.0599 15.1837 20.0599ZM19.6127 18.4034L20.7866 18.012L19.7103 17.4014C19.6241 17.5541 19.5724 17.7176 19.555 17.892C19.5384 18.0665 19.5576 18.237 19.6127 18.4034ZM17.0995 19.6846L17.5605 20.833L17.7647 19.6125C17.6526 19.5938 17.5401 19.5906 17.4271 19.6028C17.3142 19.6151 17.2049 19.6424 17.0995 19.6846Z"></path></g></svg>