<svg xmlns="http://www.w3.org/2000/svg" xmlns:xlink="http://www.w3.org/1999/xlink" width="14" height="14.04931640625" viewBox="0 0 14 14.04931640625" fill="none"><path    stroke="rgba(2, 2, 2, 1)" stroke-width="1.6" stroke-linejoin="round" stroke-linecap="round"  d="M0.819122 10.3965L0.819122 11.3475C0.819122 11.8519 1.0195 12.3356 1.37616 12.6923C1.73283 13.0489 2.21657 13.2493 2.72097 13.2493L11.2793 13.2493C11.7837 13.2493 12.2675 13.0489 12.6241 12.6923C12.9808 12.3356 13.1812 11.8519 13.1812 11.3475L13.1812 10.3965"></path><path     fill="#CDFF71"  d="M7.00024 5.89927C7.50009 5.89927 8.16517 5.84488 8.79024 5.77927C9.79297 5.67401 10.4418 4.67044 9.97024 3.77927C9.4419 2.78075 8.71671 1.87139 7.73024 1.18927C7.29359 0.887332 6.71706 0.877573 6.28024 1.17927C5.29469 1.85996 4.55883 2.77267 4.03024 3.76927C3.5578 4.66001 4.20749 5.67391 5.21024 5.77927C5.83675 5.84509 6.4991 5.89927 7.00024 5.89927"></path><path   fill="rgba(2, 2, 2, 1)"  d="M5.29201 4.98452M5.29201 4.98452Q6.38701 5.09957 7.0001 5.09957L7.0001 5.89957L7.0001 5.09957L7.0001 5.89957L7.0001 5.09957Q7.61177 5.09957 8.70339 4.98498L8.70339 4.98498L8.70339 4.98498Q9.07144 4.94635 9.24743 4.65707Q9.39878 4.40829 9.26203 4.14985L9.96915 3.7757L9.26203 4.14985L9.96915 3.7757L9.26203 4.14985Q8.48452 2.68044 7.27286 1.8426L7.27286 1.8426L7.27286 1.8426Q7.14973 1.75746 7.00016 1.75717Q6.85155 1.75687 6.73014 1.84072L6.73014 1.84072L6.73014 1.84072Q5.51945 2.6769 4.74182 4.14305L4.03508 3.7682L4.74182 4.14305L4.03508 3.7682L4.74182 4.14305Q4.60309 4.40463 4.75457 4.65715Q4.92802 4.94628 5.29201 4.98452L5.20841 5.78014L5.29201 4.98452ZM5.12482 6.57576L5.12481 6.57576Q4.56884 6.51735 4.1047 6.22062Q3.65372 5.93231 3.38252 5.48024Q3.10171 5.01213 3.07882 4.47777Q3.05449 3.90966 3.32833 3.39336L3.32833 3.39336L3.32833 3.39336Q4.28891 1.58227 5.82087 0.524202L6.27551 1.18246L5.82087 0.524202L6.27551 1.18246L5.82087 0.524202Q6.35416 0.155882 7.00333 0.157168Q7.65047 0.158451 8.18286 0.526586L7.72786 1.18459L8.18286 0.526586L7.72786 1.18459L8.18286 0.526586Q9.71597 1.5867 10.6763 3.40154L10.6763 3.40154L10.6763 3.40154Q10.9502 3.91918 10.9235 4.48762Q10.8984 5.02171 10.6143 5.48867Q10.341 5.93788 9.88895 6.22415Q9.42482 6.51804 8.87043 6.57624L8.78691 5.78061L8.87043 6.57624L8.78691 5.78061L8.87043 6.57624Q7.69552 6.69957 7.0001 6.69957L7.0001 6.69957L7.0001 6.69957Q6.30319 6.69957 5.12482 6.57576Z"></path><path    stroke="rgba(2, 2, 2, 1)" stroke-width="2.4749999046325684" stroke-linejoin="round" stroke-linecap="round"  d="M7.00018 6.49963L7.00018 10.3996"></path></svg>